<svg version="1.1" id="Layer_1" xmlns="http://www.w3.org/2000/svg" xmlns:xlink="http://www.w3.org/1999/xlink" x="0px" y="0px"
	 width="100%" viewBox="0 0 500 500" enable-background="new 0 0 500 500" xml:space="preserve">
<path fill="#FFFFFF" opacity="1.000000" stroke="none" 
	d="
M286.000000,501.000000 
	C192.000015,501.000000 98.500015,500.975983 5.000189,501.095703 
	C1.576156,501.100098 0.903036,500.423828 0.905301,497.000000 
	C1.013778,333.000092 1.013756,169.000122 0.905337,5.000248 
	C0.903074,1.576952 1.575788,0.903021 4.999875,0.905286 
	C168.999756,1.013775 332.999725,1.013761 496.999634,0.905353 
	C500.422668,0.903091 501.096985,1.575426 501.094727,4.999755 
	C500.986206,168.999634 500.986237,332.999603 501.094604,496.999512 
	C501.096893,500.422272 500.425690,501.102753 497.000244,501.096497 
	C426.833679,500.968048 356.666809,501.000000 286.000000,501.000000 
z"/>
<path fill="#1A440C" opacity="1.000000" stroke="none" 
	d="
M435.070496,322.096375 
	C407.696198,388.083496 359.595886,430.190979 290.072815,444.221375 
	C220.994324,458.162048 159.917450,439.179016 110.029373,388.954559 
	C72.206711,350.876801 54.027882,304.194000 53.671844,250.306625 
	C53.084938,161.475540 115.560242,76.378540 212.051636,57.477497 
	C319.655273,36.399742 417.502228,102.970795 442.583038,203.537735 
	C452.547516,243.492508 450.098969,283.109467 435.070496,322.096375 
z"/>
<path fill="#647E6F" opacity="1.000000" stroke="none" 
	d="
M75.121140,205.206940 
	C83.840157,173.316238 99.508095,145.914230 122.629051,122.781837 
	C149.966782,95.430626 182.731964,78.080215 220.789429,72.152786 
	C276.631042,63.455463 326.767761,77.056801 369.843811,114.258469 
	C400.757172,140.956146 420.678741,174.539093 428.445496,214.523926 
	C439.685333,272.389099 426.548798,324.473877 388.001312,369.555328 
	C358.887787,403.603760 321.709412,424.266052 277.698547,430.453796 
	C224.215500,437.973236 175.648300,424.799988 133.893280,389.534180 
	C105.353004,365.429474 85.883621,335.348877 76.051903,299.319763 
	C67.574326,268.252991 67.337875,236.932953 75.121140,205.206940 
z"/>
<path fill="#19430A" opacity="1.000000" stroke="none" 
	d="
M274.067322,73.947220 
	C297.732910,76.958885 319.572968,84.172508 339.748840,96.010147 
	C378.951996,119.011513 405.935211,152.131729 420.536957,195.184204 
	C425.737823,210.518723 428.332672,226.342178 429.222534,242.574860 
	C431.695709,287.688507 418.180542,327.727692 390.292145,362.645294 
	C362.105682,397.936035 325.289856,419.710052 280.514130,427.083649 
	C234.593979,434.645660 191.668945,426.147980 152.865173,400.330017 
	C108.850166,371.044769 82.171890,329.884521 74.286911,277.568115 
	C66.259628,224.307465 80.103210,176.683838 114.922150,135.438171 
	C143.711838,101.334610 180.581680,81.302025 224.437271,74.264442 
	C240.709686,71.653175 257.206665,71.376007 274.067322,73.947220 
z"/>
<path fill="#FBFCFB" opacity="1.000000" stroke="none" 
	d="
M310.948853,217.476532 
	C354.681183,218.245773 390.604858,249.781143 396.799103,292.439270 
	C403.641266,339.559631 371.205750,383.772858 324.401672,391.035675 
	C303.816833,394.229919 284.331421,391.020813 266.250977,380.452271 
	C263.410187,378.791718 260.581665,378.104553 257.299683,378.121094 
	C236.478577,378.226135 215.656616,378.204468 194.835068,378.159576 
	C185.831146,378.140137 176.885986,377.689056 168.338120,374.314301 
	C161.581070,371.646515 156.501556,367.392822 153.006577,360.849182 
	C140.957458,338.289734 128.650513,315.868011 116.399002,293.315125 
	C118.369186,292.129120 119.552643,293.967224 120.851746,294.925629 
	C130.163925,301.795532 140.633682,304.828827 152.136780,304.845367 
	C174.290787,304.877228 196.444839,304.997711 218.598251,305.164368 
	C221.375839,305.185272 222.917496,305.198517 222.968903,301.378967 
	C223.502441,261.733032 254.969086,225.452499 294.106873,218.989990 
	C299.535797,218.093536 304.980957,217.442062 310.948853,217.476532 
z"/>
<path fill="#FEFEFE" opacity="1.000000" stroke="none" 
	d="
M355.580536,158.226669 
	C344.967072,176.276443 334.220367,194.053970 323.486572,211.839279 
	C322.606323,213.297852 321.782166,214.505539 319.704315,214.499054 
	C298.787567,214.433853 277.870483,214.459366 256.953522,214.459366 
	C256.873596,214.051254 256.793701,213.643158 256.713806,213.235046 
	C261.506256,210.112381 266.253235,206.916412 271.113220,203.902649 
	C273.094971,202.673721 273.933716,201.756165 272.545258,199.277634 
	C263.533844,183.191376 254.934891,166.870712 245.747177,150.887619 
	C238.554199,138.374573 229.009033,128.106247 214.576370,122.928596 
	C215.955093,121.720329 217.265579,122.162811 218.399811,122.156746 
	C242.551636,122.027458 266.704224,122.009209 290.855469,121.815102 
	C304.294891,121.707085 314.161774,127.791351 320.870483,139.039215 
	C325.802063,147.307465 330.243195,155.873489 334.734711,164.395447 
	C335.902893,166.611893 336.822510,167.218521 339.186646,165.855255 
	C344.071960,163.038177 349.147949,160.551758 354.502625,157.891769 
	C355.056732,157.888275 355.253693,157.922363 355.580536,158.226669 
z"/>
<path fill="#FEFEFE" opacity="1.000000" stroke="none" 
	d="
M129.834381,222.350388 
	C123.819351,217.386536 117.974144,212.747864 112.099548,208.085876 
	C113.295662,206.490997 114.739182,207.177612 115.933693,207.168915 
	C135.749161,207.024597 155.565948,207.018326 175.380081,206.782776 
	C178.425842,206.746582 180.072906,207.580750 181.537079,210.349182 
	C190.775681,227.817215 200.235138,245.168381 209.599991,262.569794 
	C210.440598,264.131775 211.722916,265.630585 210.764328,267.911896 
	C206.110886,265.395752 201.424347,263.029968 196.919952,260.357178 
	C194.569122,258.962280 193.399384,259.196777 191.941269,261.636475 
	C184.781067,273.617035 177.326324,285.421875 170.193893,297.418518 
	C168.611877,300.079498 166.875046,301.179108 163.845596,300.852753 
	C152.017609,299.578674 139.723053,300.803925 128.767487,294.803772 
	C119.711327,289.843842 112.891991,282.788177 109.981697,272.572479 
	C108.434402,267.141113 109.684227,262.061188 112.217056,257.171356 
	C118.167381,245.683777 124.077698,234.175476 129.834381,222.350388 
z"/>
<path fill="#FDFEFD" opacity="1.000000" stroke="none" 
	d="
M156.948105,185.977539 
	C153.477036,184.353470 152.280334,182.965973 154.775726,179.284637 
	C164.284927,165.256256 173.807236,151.197128 182.432541,136.621552 
	C189.572235,124.556435 204.673157,121.043213 217.543182,128.921814 
	C229.543167,136.267807 237.567535,147.128250 244.845535,158.825607 
	C247.962997,163.836060 247.786346,167.592392 244.487000,172.625549 
	C235.018387,187.069870 226.189651,201.936264 217.244034,216.718231 
	C215.728485,219.222565 214.834686,220.274231 211.719360,218.390686 
	C193.670380,207.478119 175.448273,196.851929 156.948105,185.977539 
z"/>
<path fill="#FEFEFE" opacity="1.000000" stroke="none" 
	d="
M355.063538,158.026672 
	C355.184998,157.668472 355.510223,157.482742 355.835449,157.297012 
	C355.891693,157.537384 355.947937,157.777740 355.857300,158.257507 
	C355.562714,158.397659 355.415009,158.298416 355.063538,158.026672 
z"/>
<path fill="#1A440B" opacity="1.000000" stroke="none" 
	d="
M308.985901,224.732361 
	C308.617004,227.975677 305.860748,226.500397 304.336975,227.472565 
	C305.620728,232.264694 309.402557,231.094803 312.871002,231.224030 
	C315.894592,231.336655 320.614227,239.498688 320.224823,243.396072 
	C319.841797,247.229492 320.617859,250.457825 324.440765,252.325623 
	C326.200134,253.185196 327.171021,253.390411 328.093811,251.006302 
	C330.170593,245.640640 334.676483,242.920578 340.123291,241.901688 
	C342.554016,241.447006 344.244080,241.418121 342.417542,238.249023 
	C341.799347,237.176453 341.320221,234.621918 343.677399,234.130371 
	C345.845276,233.678284 348.673706,234.603745 347.179108,230.506836 
	C346.889618,229.713287 348.807770,229.622253 349.646759,230.043686 
	C358.192139,234.336060 365.619019,240.117111 372.184967,247.054367 
	C373.612976,248.563126 372.671204,249.528671 371.575989,250.237701 
	C369.803833,251.384979 369.806030,252.935806 370.272858,254.586472 
	C370.912994,256.850006 372.254425,255.439438 373.382690,255.054932 
	C374.465912,254.685745 374.863770,255.341019 375.095337,256.228882 
	C375.708496,258.579987 376.865417,259.586182 379.309235,258.188690 
	C380.403961,257.562653 381.289032,258.332092 381.590302,259.366486 
	C382.237030,261.587402 380.054047,260.892914 379.462280,260.864929 
	C374.427460,260.626862 370.052460,262.145691 365.764404,265.233826 
	C364.049255,262.601715 362.114899,260.342743 361.468445,256.938538 
	C361.246063,259.247253 362.887115,260.830170 362.254883,262.581299 
	C361.029297,265.975830 363.732208,264.235870 365.068726,264.855530 
	C364.450623,267.203522 360.816589,268.385010 363.733673,271.896606 
	C364.944000,273.353638 362.532349,273.894257 360.966949,273.977997 
	C356.573700,274.213043 355.818939,276.234497 358.736969,280.733521 
	C359.377869,281.449219 359.538910,281.940491 359.282562,282.864258 
	C356.671967,289.474792 350.296356,293.538147 350.399414,301.421997 
	C350.487946,308.193481 355.438232,314.078613 362.245911,313.340546 
	C365.034760,313.038177 367.850220,311.391052 370.652405,313.974670 
	C372.042725,315.256531 373.479858,315.996216 372.897308,318.232178 
	C372.494812,319.777039 373.303314,321.084198 374.148804,322.387604 
	C376.225525,325.589172 376.521881,328.825439 375.667480,332.756989 
	C374.601746,337.661072 376.835602,342.522156 378.902161,346.925629 
	C380.660553,350.672546 380.180359,353.445099 377.720093,356.442749 
	C355.132202,383.964508 325.969910,395.088440 291.493866,387.325928 
	C256.076843,379.351532 234.350967,356.069244 227.019363,320.323395 
	C222.505219,298.314209 226.923889,277.683502 239.033432,258.739380 
	C242.675949,253.041031 250.037369,253.462662 252.892838,259.810760 
	C254.094208,262.481537 255.425079,264.684021 257.763947,266.374573 
	C259.156769,267.381317 259.426575,268.168610 258.639221,270.308044 
	C257.445190,273.552521 257.252014,277.418243 259.974762,280.672607 
	C263.106903,284.416290 266.872955,287.825104 269.663055,291.514496 
	C274.088043,297.365631 278.210541,302.404663 285.692291,303.874847 
	C288.611176,304.448395 290.697174,306.408020 292.345673,309.024200 
	C292.419586,306.553345 295.035370,303.710815 290.386078,302.553833 
	C286.918640,301.690887 291.273743,298.720306 289.328674,297.085236 
	C288.942017,297.147461 288.268127,297.050385 288.025543,297.328918 
	C286.639587,298.920441 285.378265,301.320953 282.897095,299.669342 
	C280.168762,297.853210 280.392975,294.830536 281.013672,291.962372 
	C281.612183,289.196869 283.577972,289.049988 285.971130,289.186676 
	C288.966461,289.357758 292.590485,285.540344 294.825378,292.399994 
	C294.351410,285.404877 298.586609,282.135834 300.890259,278.175659 
	C302.284607,275.778656 303.925110,272.155182 308.072021,271.832977 
	C310.072388,271.677521 308.703125,269.640717 308.226074,269.159363 
	C304.957794,265.861481 308.018097,266.227631 309.986267,265.932129 
	C310.313599,265.882996 310.655609,265.931702 310.982941,265.882629 
	C312.909302,265.593872 315.288147,265.747284 316.171143,263.718781 
	C317.111115,261.559357 313.639313,262.215302 313.223694,260.136505 
	C313.035614,259.195709 311.185608,257.778290 310.269867,256.424072 
	C309.996063,256.019135 309.822327,255.546509 309.602722,255.104889 
	C304.604279,257.944763 304.376404,250.891312 300.400604,250.746368 
	C299.221527,250.044006 298.629242,249.323685 298.943634,247.942017 
	C300.248413,246.998627 301.354034,247.190643 302.441437,247.648239 
	C304.215881,248.394943 305.349091,248.813065 306.611359,246.320557 
	C307.702789,244.165497 307.513397,243.242310 306.048615,241.673737 
	C304.267761,239.766769 301.856781,239.218735 299.429596,237.894531 
	C297.917511,236.669662 297.164581,235.240921 295.918793,233.778534 
	C295.636597,233.285904 295.547607,233.075485 295.421509,232.524490 
	C295.440826,231.962997 295.497253,231.742050 295.778076,231.262970 
	C296.002472,231.004807 296.000000,231.000000 296.003876,231.002258 
	C296.612427,230.414383 297.173279,229.787170 297.708557,228.770386 
	C298.956482,224.574295 303.059814,225.225189 305.900269,223.251801 
	C307.998383,221.807816 308.093018,223.763611 308.985901,224.732361 
z"/>
<path fill="#2B511D" opacity="1.000000" stroke="none" 
	d="
M295.601654,230.898041 
	C296.002472,231.004807 296.024139,231.459305 296.026337,231.686798 
	C293.571503,232.869278 291.067474,233.262054 288.112274,232.523773 
	C287.315247,232.302414 286.539551,232.807678 286.444550,231.870651 
	C286.436249,231.788422 286.346527,231.769745 286.389404,231.792938 
	C286.975739,232.110214 285.757538,232.691833 286.483826,232.310349 
	C289.708099,233.242020 292.660797,232.740692 295.880798,232.817078 
	C297.338531,233.740143 298.380585,234.588333 298.981934,236.185852 
	C297.227142,237.644180 297.224609,237.656052 293.770233,236.919083 
	C291.764435,236.491165 290.210907,236.418182 291.949341,239.444107 
	C292.227020,239.948898 292.299469,240.171707 292.183990,240.691528 
	C289.715546,246.758240 287.942139,239.340851 285.829254,240.751343 
	C284.642334,238.471344 284.048859,235.209442 282.625122,240.945282 
	C281.937714,243.714630 277.743011,243.941925 274.332275,242.195251 
	C273.894440,241.750595 273.764496,241.566940 273.645111,241.049210 
	C274.099762,238.469376 272.748718,237.810181 270.893951,237.493820 
	C269.110016,237.189529 267.227570,237.378326 265.336700,236.218811 
	C264.296173,233.876266 265.199890,232.774170 267.571350,232.351593 
	C269.443207,232.389267 270.751556,232.030014 271.401489,230.111816 
	C274.761902,228.330963 278.039520,226.829773 281.341034,225.383163 
	C282.817596,224.736206 284.585052,224.590530 285.204132,226.251892 
	C286.277374,229.132156 287.813690,227.052078 289.484314,226.830658 
	C289.205658,231.248413 292.765137,230.273849 295.601654,230.898041 
z"/>
<path fill="#274E19" opacity="1.000000" stroke="none" 
	d="
M359.496033,283.125671 
	C359.061493,282.735779 359.028931,282.249786 358.992249,281.398376 
	C363.434418,281.908417 364.784790,277.915924 367.080780,275.651733 
	C370.046417,272.727112 372.652191,272.031097 375.470337,275.623718 
	C376.847504,274.455963 375.450104,273.089600 376.105530,271.618073 
	C378.354584,272.301666 379.942627,273.953583 381.262787,275.633484 
	C382.665161,277.417969 383.206665,280.668060 386.118134,277.053162 
	C386.343170,276.773834 387.326019,277.104828 387.956604,277.152130 
	C387.462921,281.386200 394.631378,281.771332 392.473755,286.868439 
	C390.642029,287.369843 388.542877,287.366119 386.461853,286.576599 
	C385.222351,286.106293 384.092499,285.654694 382.688385,286.423340 
	C380.008270,287.890503 374.369171,286.285767 374.141998,283.653809 
	C373.851807,280.291077 371.985840,280.894623 370.127808,281.169220 
	C366.701080,281.675720 363.306213,282.397522 359.496033,283.125671 
z"/>
<path fill="#244C16" opacity="1.000000" stroke="none" 
	d="
M297.774536,250.821869 
	C297.353851,255.041138 298.570679,259.201935 297.190186,263.193481 
	C296.936890,263.925812 297.191284,264.954987 296.068726,265.110840 
	C295.120148,265.242523 294.258759,264.609283 294.121704,263.877991 
	C293.461395,260.355011 290.275513,259.914856 287.872375,258.552032 
	C282.348724,255.419479 282.028381,252.375641 287.325714,249.085358 
	C288.557922,248.320023 289.201630,247.152954 290.998322,246.913025 
	C292.475677,248.174805 293.655945,248.174332 294.995361,248.708969 
	C295.823395,249.748108 295.925262,251.155090 297.774536,250.821869 
z"/>
<path fill="#2C521E" opacity="1.000000" stroke="none" 
	d="
M298.366943,250.988647 
	C296.877411,250.840179 294.893799,252.502914 294.988647,249.299347 
	C294.023895,247.961334 292.416870,248.412125 291.190979,247.207123 
	C290.948273,246.984390 291.014374,246.961929 291.028320,246.993149 
	C294.508087,243.436554 294.508087,243.436554 292.411713,240.981293 
	C291.996094,240.988510 291.996094,240.580826 291.997314,240.376984 
	C294.538300,237.756821 297.248993,238.976013 299.860504,239.917252 
	C301.864471,240.639481 303.324890,242.136322 303.203461,244.372910 
	C303.084442,246.565857 301.361145,247.326859 299.199951,247.881470 
	C299.347137,248.851761 299.676697,249.481415 300.018982,250.379150 
	C299.590668,250.754654 299.149597,250.862030 298.366943,250.988647 
z"/>
<path fill="#E3E8E1" opacity="1.000000" stroke="none" 
	d="
M264.855835,235.927139 
	C267.760162,235.341675 270.278656,236.879440 273.098938,236.273270 
	C274.207062,236.035110 276.969788,238.388199 274.394165,241.044220 
	C271.335968,242.791962 268.539581,242.305328 265.328522,241.262268 
	C264.929932,241.000183 265.009064,240.993744 265.013947,241.033142 
	C263.760834,239.846008 262.790283,238.526367 263.831940,236.300690 
	C264.253723,235.939194 264.425781,235.913040 264.855835,235.927139 
z"/>
<path fill="#D8DFD5" opacity="1.000000" stroke="none" 
	d="
M365.326935,265.092407 
	C362.685303,265.418213 360.027222,266.117523 361.700226,261.540924 
	C362.279877,259.955261 358.048767,258.085663 361.543549,255.678131 
	C362.949982,258.633362 364.342773,261.559875 365.542664,264.834778 
	C365.349823,265.183136 365.303040,265.122406 365.326935,265.092407 
z"/>
<path fill="#305623" opacity="1.000000" stroke="none" 
	d="
M263.721436,236.041687 
	C263.625153,237.605438 264.444153,238.936172 265.075684,240.685577 
	C262.004333,241.983673 259.526672,239.347397 255.810425,240.902359 
	C257.947784,236.921783 261.681213,238.412384 263.721436,236.041687 
z"/>
<path fill="#426436" opacity="1.000000" stroke="none" 
	d="
M264.871338,241.398438 
	C267.678375,241.014282 270.446289,241.531006 273.586517,240.876556 
	C274.011719,241.071564 274.011536,241.502991 274.017944,241.718628 
	C270.902802,245.305878 267.848267,244.189453 264.871338,241.398438 
z"/>
<path fill="#305623" opacity="1.000000" stroke="none" 
	d="
M289.879395,226.794403 
	C290.645966,225.330856 288.426361,224.709152 288.875122,223.227448 
	C291.113007,222.410889 293.363892,222.958847 295.710663,223.216034 
	C294.514130,224.831116 292.819275,223.599838 291.474792,224.307068 
	C291.412811,226.005524 293.517883,225.387039 294.155884,226.578293 
	C293.010162,227.489655 291.754852,226.884827 290.179321,226.796204 
	C289.792694,226.717834 289.856049,226.763199 289.879395,226.794403 
z"/>
<path fill="#4B6C3F" opacity="1.000000" stroke="none" 
	d="
M309.366699,224.718246 
	C307.185394,225.922562 307.729462,223.525665 306.465515,223.140503 
	C306.495636,222.510529 306.643280,221.621292 307.081543,221.441849 
	C308.691010,220.782913 310.842834,220.019974 311.879761,221.654831 
	C313.045227,223.492310 309.304260,222.554291 309.366699,224.718246 
z"/>
<path fill="#B1BFAC" opacity="1.000000" stroke="none" 
	d="
M271.132477,229.845016 
	C271.880127,230.647049 272.718536,232.160858 272.626312,232.219849 
	C271.224121,233.116821 269.731567,234.035294 267.950897,232.707062 
	C268.068024,230.627701 269.400543,230.221252 271.132477,229.845016 
z"/>
<path fill="#2B511D" opacity="1.000000" stroke="none" 
	d="
M297.435425,228.563843 
	C297.959991,229.504486 297.918976,230.454178 296.378357,230.968811 
	C296.229492,230.160141 295.847046,229.035828 297.435425,228.563843 
z"/>
<path fill="#FAFBF9" opacity="1.000000" stroke="none" 
	d="
M301.235260,373.260437 
	C300.915955,372.619965 300.831177,372.240967 300.542297,371.676819 
	C300.458893,371.156738 300.579559,370.821747 300.465942,370.026825 
	C300.231659,369.566925 300.715881,369.520477 300.825745,369.303497 
	C300.339355,368.671967 300.547150,368.067627 300.593414,367.217133 
	C301.744232,357.808197 302.824768,348.685455 304.011810,339.576569 
	C304.335693,337.091095 303.179596,335.687286 301.377258,334.193146 
	C297.232483,330.756927 295.782532,325.973785 295.646790,320.776398 
	C295.547882,316.990021 298.477661,314.105957 298.613678,310.060669 
	C298.722412,306.825500 308.347748,305.951324 311.743591,308.929565 
	C313.774658,310.710907 315.592834,312.510834 318.344879,313.118652 
	C319.033783,313.270782 320.021393,314.094055 320.093353,314.701141 
	C320.768158,320.393982 325.764069,319.941711 329.380035,321.169495 
	C334.376678,322.865997 335.238586,324.645813 332.273163,329.030548 
	C331.397003,330.326019 330.827606,331.530426 330.814087,333.122253 
	C330.780914,337.028534 329.687469,340.207214 325.377777,341.560913 
	C323.824493,342.048798 322.294312,342.912781 321.922302,345.283386 
	C321.387634,348.690613 318.563507,350.773895 316.416321,353.358276 
	C312.859711,357.639069 305.130371,359.723053 306.915619,367.942688 
	C307.203461,369.268005 305.675385,372.675476 302.549622,373.493835 
	C301.929321,373.432007 301.699524,373.476929 301.235260,373.260437 
z"/>
<path fill="#E5E9E3" opacity="1.000000" stroke="none" 
	d="
M299.403015,248.134674 
	C298.806122,248.016663 298.594666,247.811218 298.383209,247.605774 
	C300.187500,246.879593 302.906403,246.165253 302.535767,244.135345 
	C302.012939,241.271881 298.973419,240.538452 296.301331,240.114899 
	C295.167572,239.935211 293.986908,240.051270 292.413025,240.103027 
	C288.891785,240.228745 288.087921,237.965179 289.208099,236.022675 
	C289.849518,234.910446 292.994385,234.560410 294.347717,235.881668 
	C295.686066,237.188324 296.687866,237.452744 298.613708,236.645172 
	C302.239563,238.347839 306.134613,239.161026 308.248688,242.795395 
	C308.839691,243.811386 311.653900,243.334930 311.074219,245.267075 
	C310.265503,247.962601 308.394684,244.287567 307.030884,245.538391 
	C306.717834,247.025497 309.415741,248.494461 307.511993,249.752106 
	C306.241791,250.591248 304.367065,250.406784 302.951935,249.174347 
	C302.062256,248.399521 301.023712,247.914581 299.403015,248.134674 
z"/>
<path fill="#D8DFD5" opacity="1.000000" stroke="none" 
	d="
M346.627502,246.739075 
	C347.337799,246.220779 347.695740,245.775131 348.137573,245.664505 
	C349.673523,245.279877 351.419891,244.310120 352.553711,246.239517 
	C353.090576,247.153152 352.123108,247.817245 351.380951,247.925018 
	C349.620911,248.180634 347.297974,250.870010 346.627502,246.739075 
z"/>
<path fill="#CED7CB" opacity="1.000000" stroke="none" 
	d="
M317.748169,269.795349 
	C316.510071,268.723328 313.963745,270.110168 314.091614,267.763672 
	C314.142303,266.832794 315.284637,265.897095 316.301056,266.368835 
	C317.583344,266.963989 319.916321,267.384583 317.748169,269.795349 
z"/>
<path fill="#BBC7B6" opacity="1.000000" stroke="none" 
	d="
M296.194153,232.743042 
	C292.831146,233.748764 289.517456,233.997513 286.012207,232.509323 
	C285.842438,232.011337 285.894989,231.820404 286.148865,231.411102 
	C289.155487,232.794601 292.192200,231.788177 295.575928,231.942780 
	C296.096771,232.094894 296.165039,232.275497 296.194153,232.743042 
z"/>
<path fill="#6F8966" opacity="1.000000" stroke="none" 
	d="
M300.568970,367.209351 
	C301.393524,367.245331 301.514496,367.876434 301.182922,368.846283 
	C300.795197,368.555359 300.654724,368.024170 300.568970,367.209351 
z"/>
<path fill="#6F8966" opacity="1.000000" stroke="none" 
	d="
M300.860840,373.284119 
	C301.220764,372.983276 301.440735,372.967529 301.909912,373.169434 
	C302.202179,374.002350 302.174927,374.664093 301.367462,374.597076 
	C301.125153,374.576935 300.934937,373.929352 300.860840,373.284119 
z"/>
<path fill="#6F8966" opacity="1.000000" stroke="none" 
	d="
M300.047638,369.416626 
	C300.231659,369.566925 300.165497,369.529144 300.205566,369.524597 
	C300.106079,369.593475 299.962830,369.730347 299.828125,369.722382 
	C299.694885,369.714478 299.570374,369.560272 299.442017,369.470276 
	C299.582550,369.402313 299.723083,369.334320 300.047638,369.416626 
z"/>
<path fill="#6F8966" opacity="1.000000" stroke="none" 
	d="
M300.097961,371.362579 
	C300.338196,371.491730 300.268250,371.461731 300.307556,371.449677 
	C300.123047,371.515503 299.899231,371.593384 299.675385,371.671295 
	C299.736176,371.525330 299.796967,371.379395 300.097961,371.362579 
z"/>
<path fill="#D8DFD5" opacity="1.000000" stroke="none" 
	d="
M280.648071,237.857208 
	C279.309906,237.379211 277.885773,237.076218 278.914948,235.556625 
	C279.199066,235.137115 280.208160,234.668121 280.413300,234.827713 
	C281.378296,235.578323 282.511749,236.474106 280.648071,237.857208 
z"/>
<path fill="#64805A" opacity="1.000000" stroke="none" 
	d="
M278.083740,230.936523 
	C278.981049,229.923996 279.611633,230.223053 279.824310,231.242004 
	C279.908142,231.643555 279.597961,232.127365 279.467224,232.573730 
	C279.010468,232.139236 278.553680,231.704758 278.083740,230.936523 
z"/>
<path fill="#64805A" opacity="1.000000" stroke="none" 
	d="
M275.840912,232.058014 
	C275.887390,232.032837 275.794434,232.083176 275.840912,232.058014 
z"/>
<path fill="#BBC7B6" opacity="1.000000" stroke="none" 
	d="
M285.962769,231.968079 
	C285.068756,231.746857 284.750397,231.330124 286.125244,231.123627 
	C286.278687,231.373123 286.207153,231.553513 285.962769,231.968079 
z"/>
<path fill="#64805A" opacity="1.000000" stroke="none" 
	d="
M276.004486,232.006226 
	C276.146881,231.805527 276.282471,231.596466 276.418030,231.387390 
	C276.403381,231.576218 276.388733,231.765030 276.177185,231.968170 
	C275.980316,231.982498 275.997650,231.997864 276.004486,232.006226 
z"/>
<path fill="#D8DFD5" opacity="1.000000" stroke="none" 
	d="
M290.938965,247.369080 
	C292.598083,246.319443 293.498505,247.802902 294.866150,248.642914 
	C293.780334,248.097565 290.940308,252.617355 290.938965,247.369080 
z"/>
</svg>